%TF.GenerationSoftware,KiCad,Pcbnew,8.0.0*%
%TF.CreationDate,2024-04-01T19:04:45+08:00*%
%TF.ProjectId,tutorial file,7475746f-7269-4616-9c20-66696c652e6b,rev?*%
%TF.SameCoordinates,Original*%
%TF.FileFunction,Legend,Top*%
%TF.FilePolarity,Positive*%
%FSLAX46Y46*%
G04 Gerber Fmt 4.6, Leading zero omitted, Abs format (unit mm)*
G04 Created by KiCad (PCBNEW 8.0.0) date 2024-04-01 19:04:45*
%MOMM*%
%LPD*%
G01*
G04 APERTURE LIST*
%ADD10C,0.150000*%
%ADD11C,0.120000*%
G04 APERTURE END LIST*
D10*
X141658333Y-98024819D02*
X141325000Y-97548628D01*
X141086905Y-98024819D02*
X141086905Y-97024819D01*
X141086905Y-97024819D02*
X141467857Y-97024819D01*
X141467857Y-97024819D02*
X141563095Y-97072438D01*
X141563095Y-97072438D02*
X141610714Y-97120057D01*
X141610714Y-97120057D02*
X141658333Y-97215295D01*
X141658333Y-97215295D02*
X141658333Y-97358152D01*
X141658333Y-97358152D02*
X141610714Y-97453390D01*
X141610714Y-97453390D02*
X141563095Y-97501009D01*
X141563095Y-97501009D02*
X141467857Y-97548628D01*
X141467857Y-97548628D02*
X141086905Y-97548628D01*
X142039286Y-97120057D02*
X142086905Y-97072438D01*
X142086905Y-97072438D02*
X142182143Y-97024819D01*
X142182143Y-97024819D02*
X142420238Y-97024819D01*
X142420238Y-97024819D02*
X142515476Y-97072438D01*
X142515476Y-97072438D02*
X142563095Y-97120057D01*
X142563095Y-97120057D02*
X142610714Y-97215295D01*
X142610714Y-97215295D02*
X142610714Y-97310533D01*
X142610714Y-97310533D02*
X142563095Y-97453390D01*
X142563095Y-97453390D02*
X141991667Y-98024819D01*
X141991667Y-98024819D02*
X142610714Y-98024819D01*
X137833333Y-94454818D02*
X137500000Y-93978627D01*
X137261905Y-94454818D02*
X137261905Y-93454818D01*
X137261905Y-93454818D02*
X137642857Y-93454818D01*
X137642857Y-93454818D02*
X137738095Y-93502437D01*
X137738095Y-93502437D02*
X137785714Y-93550056D01*
X137785714Y-93550056D02*
X137833333Y-93645294D01*
X137833333Y-93645294D02*
X137833333Y-93788151D01*
X137833333Y-93788151D02*
X137785714Y-93883389D01*
X137785714Y-93883389D02*
X137738095Y-93931008D01*
X137738095Y-93931008D02*
X137642857Y-93978627D01*
X137642857Y-93978627D02*
X137261905Y-93978627D01*
X138785714Y-94454818D02*
X138214286Y-94454818D01*
X138500000Y-94454818D02*
X138500000Y-93454818D01*
X138500000Y-93454818D02*
X138404762Y-93597675D01*
X138404762Y-93597675D02*
X138309524Y-93692913D01*
X138309524Y-93692913D02*
X138214286Y-93740532D01*
X134404761Y-97490057D02*
X134309523Y-97442438D01*
X134309523Y-97442438D02*
X134214285Y-97347200D01*
X134214285Y-97347200D02*
X134071428Y-97204342D01*
X134071428Y-97204342D02*
X133976190Y-97156723D01*
X133976190Y-97156723D02*
X133880952Y-97156723D01*
X133928571Y-97394819D02*
X133833333Y-97347200D01*
X133833333Y-97347200D02*
X133738095Y-97251961D01*
X133738095Y-97251961D02*
X133690476Y-97061485D01*
X133690476Y-97061485D02*
X133690476Y-96728152D01*
X133690476Y-96728152D02*
X133738095Y-96537676D01*
X133738095Y-96537676D02*
X133833333Y-96442438D01*
X133833333Y-96442438D02*
X133928571Y-96394819D01*
X133928571Y-96394819D02*
X134119047Y-96394819D01*
X134119047Y-96394819D02*
X134214285Y-96442438D01*
X134214285Y-96442438D02*
X134309523Y-96537676D01*
X134309523Y-96537676D02*
X134357142Y-96728152D01*
X134357142Y-96728152D02*
X134357142Y-97061485D01*
X134357142Y-97061485D02*
X134309523Y-97251961D01*
X134309523Y-97251961D02*
X134214285Y-97347200D01*
X134214285Y-97347200D02*
X134119047Y-97394819D01*
X134119047Y-97394819D02*
X133928571Y-97394819D01*
X135309523Y-97394819D02*
X134738095Y-97394819D01*
X135023809Y-97394819D02*
X135023809Y-96394819D01*
X135023809Y-96394819D02*
X134928571Y-96537676D01*
X134928571Y-96537676D02*
X134833333Y-96632914D01*
X134833333Y-96632914D02*
X134738095Y-96680533D01*
X132261666Y-106454819D02*
X132261666Y-107169104D01*
X132261666Y-107169104D02*
X132214047Y-107311961D01*
X132214047Y-107311961D02*
X132118809Y-107407200D01*
X132118809Y-107407200D02*
X131975952Y-107454819D01*
X131975952Y-107454819D02*
X131880714Y-107454819D01*
X132642619Y-106454819D02*
X133261666Y-106454819D01*
X133261666Y-106454819D02*
X132928333Y-106835771D01*
X132928333Y-106835771D02*
X133071190Y-106835771D01*
X133071190Y-106835771D02*
X133166428Y-106883390D01*
X133166428Y-106883390D02*
X133214047Y-106931009D01*
X133214047Y-106931009D02*
X133261666Y-107026247D01*
X133261666Y-107026247D02*
X133261666Y-107264342D01*
X133261666Y-107264342D02*
X133214047Y-107359580D01*
X133214047Y-107359580D02*
X133166428Y-107407200D01*
X133166428Y-107407200D02*
X133071190Y-107454819D01*
X133071190Y-107454819D02*
X132785476Y-107454819D01*
X132785476Y-107454819D02*
X132690238Y-107407200D01*
X132690238Y-107407200D02*
X132642619Y-107359580D01*
X146666666Y-96549819D02*
X146666666Y-97264104D01*
X146666666Y-97264104D02*
X146619047Y-97406961D01*
X146619047Y-97406961D02*
X146523809Y-97502200D01*
X146523809Y-97502200D02*
X146380952Y-97549819D01*
X146380952Y-97549819D02*
X146285714Y-97549819D01*
X147095238Y-96645057D02*
X147142857Y-96597438D01*
X147142857Y-96597438D02*
X147238095Y-96549819D01*
X147238095Y-96549819D02*
X147476190Y-96549819D01*
X147476190Y-96549819D02*
X147571428Y-96597438D01*
X147571428Y-96597438D02*
X147619047Y-96645057D01*
X147619047Y-96645057D02*
X147666666Y-96740295D01*
X147666666Y-96740295D02*
X147666666Y-96835533D01*
X147666666Y-96835533D02*
X147619047Y-96978390D01*
X147619047Y-96978390D02*
X147047619Y-97549819D01*
X147047619Y-97549819D02*
X147666666Y-97549819D01*
X128410666Y-90258619D02*
X128410666Y-90972904D01*
X128410666Y-90972904D02*
X128363047Y-91115761D01*
X128363047Y-91115761D02*
X128267809Y-91211000D01*
X128267809Y-91211000D02*
X128124952Y-91258619D01*
X128124952Y-91258619D02*
X128029714Y-91258619D01*
X129410666Y-91258619D02*
X128839238Y-91258619D01*
X129124952Y-91258619D02*
X129124952Y-90258619D01*
X129124952Y-90258619D02*
X129029714Y-90401476D01*
X129029714Y-90401476D02*
X128934476Y-90496714D01*
X128934476Y-90496714D02*
X128839238Y-90544333D01*
D11*
%TO.C,R2*%
X141587742Y-98477500D02*
X142062258Y-98477500D01*
X141587742Y-99522500D02*
X142062258Y-99522500D01*
%TO.C,R1*%
X136522500Y-93762742D02*
X136522500Y-94237258D01*
X135477500Y-93762742D02*
X135477500Y-94237258D01*
%TO.C,Q1*%
X134217800Y-102350000D02*
X137817800Y-102350000D01*
X134179322Y-102338478D02*
G75*
G02*
X136017800Y-97900000I1838478J1838478D01*
G01*
X136017800Y-97900000D02*
G75*
G02*
X137856278Y-102338478I0J-2600000D01*
G01*
%TO.C,J3*%
X135365000Y-108330000D02*
X136695000Y-108330000D01*
X135365000Y-108330000D02*
X135365000Y-107760000D01*
X136695000Y-108330000D02*
X136695000Y-107307530D01*
X133970000Y-107000000D02*
X133970000Y-105670000D01*
X136695000Y-106692470D02*
X136695000Y-105670000D01*
X135365000Y-106240000D02*
X135365000Y-105670000D01*
X133970000Y-105670000D02*
X134730000Y-105670000D01*
X135365000Y-105670000D02*
X136695000Y-105670000D01*
%TO.C,J2*%
X145670000Y-99865000D02*
X145670000Y-101195000D01*
X145670000Y-99865000D02*
X146240000Y-99865000D01*
X145670000Y-101195000D02*
X146692470Y-101195000D01*
X147000000Y-98470000D02*
X148330000Y-98470000D01*
X147307530Y-101195000D02*
X148330000Y-101195000D01*
X147760000Y-99865000D02*
X148330000Y-99865000D01*
X148330000Y-98470000D02*
X148330000Y-99230000D01*
X148330000Y-99865000D02*
X148330000Y-101195000D01*
%TO.C,J1*%
X127414000Y-93573800D02*
X127414000Y-94903800D01*
X127414000Y-93573800D02*
X127984000Y-93573800D01*
X127414000Y-94903800D02*
X128436470Y-94903800D01*
X128744000Y-92178800D02*
X130074000Y-92178800D01*
X129051530Y-94903800D02*
X130074000Y-94903800D01*
X129504000Y-93573800D02*
X130074000Y-93573800D01*
X130074000Y-92178800D02*
X130074000Y-92938800D01*
X130074000Y-93573800D02*
X130074000Y-94903800D01*
%TD*%
M02*
