%TF.GenerationSoftware,KiCad,Pcbnew,8.0.0*%
%TF.CreationDate,2024-04-01T19:04:45+08:00*%
%TF.ProjectId,tutorial file,7475746f-7269-4616-9c20-66696c652e6b,rev?*%
%TF.SameCoordinates,Original*%
%TF.FileFunction,Copper,L2,Bot*%
%TF.FilePolarity,Positive*%
%FSLAX46Y46*%
G04 Gerber Fmt 4.6, Leading zero omitted, Abs format (unit mm)*
G04 Created by KiCad (PCBNEW 8.0.0) date 2024-04-01 19:04:45*
%MOMM*%
%LPD*%
G01*
G04 APERTURE LIST*
%TA.AperFunction,ComponentPad*%
%ADD10R,1.050000X1.500000*%
%TD*%
%TA.AperFunction,ComponentPad*%
%ADD11O,1.050000X1.500000*%
%TD*%
%TA.AperFunction,ComponentPad*%
%ADD12R,1.000000X1.000000*%
%TD*%
%TA.AperFunction,ComponentPad*%
%ADD13O,1.000000X1.000000*%
%TD*%
G04 APERTURE END LIST*
D10*
%TO.P,Q1,1,E*%
%TO.N,GNDREF*%
X134747800Y-100500000D03*
D11*
%TO.P,Q1,2,B*%
%TO.N,Net-(Q1-B)*%
X136017800Y-100500000D03*
%TO.P,Q1,3,C*%
%TO.N,Net-(J3-Pin_2)*%
X137287800Y-100500000D03*
%TD*%
D12*
%TO.P,J3,1,Pin_1*%
%TO.N,GNDREF*%
X134730000Y-107000000D03*
D13*
%TO.P,J3,2,Pin_2*%
%TO.N,Net-(J3-Pin_2)*%
X136000000Y-107000000D03*
%TD*%
D12*
%TO.P,J2,1,Pin_1*%
%TO.N,Net-(J2-Pin_1)*%
X147000000Y-99230000D03*
D13*
%TO.P,J2,2,Pin_2*%
%TO.N,GNDREF*%
X147000000Y-100500000D03*
%TD*%
D12*
%TO.P,J1,1,Pin_1*%
%TO.N,Net-(J1-Pin_1)*%
X128744000Y-92938800D03*
D13*
%TO.P,J1,2,Pin_2*%
%TO.N,GNDREF*%
X128744000Y-94208800D03*
%TD*%
%TA.AperFunction,Conductor*%
%TO.N,GNDREF*%
G36*
X149004418Y-90500816D02*
G01*
X149204561Y-90515130D01*
X149222063Y-90517647D01*
X149413797Y-90559355D01*
X149430755Y-90564334D01*
X149614609Y-90632909D01*
X149630701Y-90640259D01*
X149802904Y-90734288D01*
X149817784Y-90743849D01*
X149974867Y-90861441D01*
X149988237Y-90873027D01*
X150126972Y-91011762D01*
X150138558Y-91025132D01*
X150256146Y-91182210D01*
X150265711Y-91197095D01*
X150359740Y-91369298D01*
X150367090Y-91385390D01*
X150435662Y-91569236D01*
X150440646Y-91586212D01*
X150482351Y-91777931D01*
X150484869Y-91795442D01*
X150499184Y-91995580D01*
X150499500Y-92004427D01*
X150499500Y-107995572D01*
X150499184Y-108004419D01*
X150484869Y-108204557D01*
X150482351Y-108222068D01*
X150440646Y-108413787D01*
X150435662Y-108430763D01*
X150367090Y-108614609D01*
X150359740Y-108630701D01*
X150265711Y-108802904D01*
X150256146Y-108817789D01*
X150138558Y-108974867D01*
X150126972Y-108988237D01*
X149988237Y-109126972D01*
X149974867Y-109138558D01*
X149817789Y-109256146D01*
X149802904Y-109265711D01*
X149630701Y-109359740D01*
X149614609Y-109367090D01*
X149430763Y-109435662D01*
X149413787Y-109440646D01*
X149222068Y-109482351D01*
X149204557Y-109484869D01*
X149023779Y-109497799D01*
X149004417Y-109499184D01*
X148995572Y-109499500D01*
X128004428Y-109499500D01*
X127995582Y-109499184D01*
X127973622Y-109497613D01*
X127795442Y-109484869D01*
X127777931Y-109482351D01*
X127586212Y-109440646D01*
X127569236Y-109435662D01*
X127385390Y-109367090D01*
X127369298Y-109359740D01*
X127197095Y-109265711D01*
X127182210Y-109256146D01*
X127025132Y-109138558D01*
X127011762Y-109126972D01*
X126873027Y-108988237D01*
X126861441Y-108974867D01*
X126743849Y-108817784D01*
X126734288Y-108802904D01*
X126640259Y-108630701D01*
X126632909Y-108614609D01*
X126572091Y-108451551D01*
X126564334Y-108430755D01*
X126559355Y-108413797D01*
X126517647Y-108222063D01*
X126515130Y-108204556D01*
X126500816Y-108004418D01*
X126500500Y-107995572D01*
X126500500Y-107250000D01*
X133730000Y-107250000D01*
X133730000Y-107547844D01*
X133736401Y-107607372D01*
X133736403Y-107607379D01*
X133786645Y-107742086D01*
X133786649Y-107742093D01*
X133872809Y-107857187D01*
X133872812Y-107857190D01*
X133987906Y-107943350D01*
X133987913Y-107943354D01*
X134122620Y-107993596D01*
X134122627Y-107993598D01*
X134182155Y-107999999D01*
X134182172Y-108000000D01*
X134480000Y-108000000D01*
X134480000Y-107250000D01*
X133730000Y-107250000D01*
X126500500Y-107250000D01*
X126500500Y-107046078D01*
X134380000Y-107046078D01*
X134403852Y-107135095D01*
X134449930Y-107214905D01*
X134515095Y-107280070D01*
X134594905Y-107326148D01*
X134683922Y-107350000D01*
X134776078Y-107350000D01*
X134865095Y-107326148D01*
X134944905Y-107280070D01*
X134980000Y-107244975D01*
X134980000Y-108000000D01*
X135277828Y-108000000D01*
X135277844Y-107999999D01*
X135337372Y-107993598D01*
X135337379Y-107993596D01*
X135472086Y-107943354D01*
X135472093Y-107943350D01*
X135587187Y-107857190D01*
X135587188Y-107857189D01*
X135623819Y-107808257D01*
X135679752Y-107766385D01*
X135749444Y-107761401D01*
X135764034Y-107765524D01*
X135820745Y-107785368D01*
X135820748Y-107785369D01*
X135999996Y-107805565D01*
X136000000Y-107805565D01*
X136000004Y-107805565D01*
X136179249Y-107785369D01*
X136179252Y-107785368D01*
X136179255Y-107785368D01*
X136349522Y-107725789D01*
X136502262Y-107629816D01*
X136629816Y-107502262D01*
X136725789Y-107349522D01*
X136785368Y-107179255D01*
X136790344Y-107135095D01*
X136805565Y-107000003D01*
X136805565Y-106999996D01*
X136785369Y-106820750D01*
X136785368Y-106820745D01*
X136725789Y-106650478D01*
X136629816Y-106497738D01*
X136502262Y-106370184D01*
X136349523Y-106274211D01*
X136179254Y-106214631D01*
X136179249Y-106214630D01*
X136000004Y-106194435D01*
X135999996Y-106194435D01*
X135820746Y-106214631D01*
X135820742Y-106214632D01*
X135764037Y-106234473D01*
X135694259Y-106238034D01*
X135633632Y-106203304D01*
X135623818Y-106191742D01*
X135587186Y-106142809D01*
X135472093Y-106056649D01*
X135472086Y-106056645D01*
X135337379Y-106006403D01*
X135337372Y-106006401D01*
X135277844Y-106000000D01*
X134980000Y-106000000D01*
X134980000Y-106755025D01*
X134944905Y-106719930D01*
X134865095Y-106673852D01*
X134776078Y-106650000D01*
X134683922Y-106650000D01*
X134594905Y-106673852D01*
X134515095Y-106719930D01*
X134449930Y-106785095D01*
X134403852Y-106864905D01*
X134380000Y-106953922D01*
X134380000Y-107046078D01*
X126500500Y-107046078D01*
X126500500Y-106750000D01*
X133730000Y-106750000D01*
X134480000Y-106750000D01*
X134480000Y-106000000D01*
X134182155Y-106000000D01*
X134122627Y-106006401D01*
X134122620Y-106006403D01*
X133987913Y-106056645D01*
X133987906Y-106056649D01*
X133872812Y-106142809D01*
X133872809Y-106142812D01*
X133786649Y-106257906D01*
X133786645Y-106257913D01*
X133736403Y-106392620D01*
X133736401Y-106392627D01*
X133730000Y-106452155D01*
X133730000Y-106750000D01*
X126500500Y-106750000D01*
X126500500Y-101297844D01*
X133722800Y-101297844D01*
X133729201Y-101357372D01*
X133729203Y-101357379D01*
X133779445Y-101492086D01*
X133779449Y-101492093D01*
X133865609Y-101607187D01*
X133865612Y-101607190D01*
X133980706Y-101693350D01*
X133980713Y-101693354D01*
X134115420Y-101743596D01*
X134115427Y-101743598D01*
X134174955Y-101749999D01*
X134174972Y-101750000D01*
X134497800Y-101750000D01*
X134497800Y-100780330D01*
X134517545Y-100800075D01*
X134603055Y-100849444D01*
X134698430Y-100875000D01*
X134797170Y-100875000D01*
X134892545Y-100849444D01*
X134978055Y-100800075D01*
X134997800Y-100780330D01*
X134997800Y-101750000D01*
X135320628Y-101750000D01*
X135320644Y-101749999D01*
X135380172Y-101743598D01*
X135380179Y-101743596D01*
X135514886Y-101693354D01*
X135514888Y-101693352D01*
X135629990Y-101607188D01*
X135659825Y-101567332D01*
X135715757Y-101525460D01*
X135783285Y-101520024D01*
X135936492Y-101550500D01*
X135936495Y-101550500D01*
X136099107Y-101550500D01*
X136224987Y-101525460D01*
X136258589Y-101518776D01*
X136408821Y-101456548D01*
X136408823Y-101456547D01*
X136475969Y-101411680D01*
X136544025Y-101366208D01*
X136565119Y-101345113D01*
X136626440Y-101311629D01*
X136696131Y-101316612D01*
X136740480Y-101345113D01*
X136752739Y-101357372D01*
X136761577Y-101366210D01*
X136761579Y-101366211D01*
X136896776Y-101456547D01*
X136896780Y-101456549D01*
X136982592Y-101492093D01*
X137047011Y-101518776D01*
X137047015Y-101518776D01*
X137047016Y-101518777D01*
X137206492Y-101550500D01*
X137206495Y-101550500D01*
X137369107Y-101550500D01*
X137494987Y-101525460D01*
X137528589Y-101518776D01*
X137678821Y-101456548D01*
X137678823Y-101456547D01*
X137745969Y-101411680D01*
X137814025Y-101366208D01*
X137929008Y-101251225D01*
X138019348Y-101116021D01*
X138081576Y-100965789D01*
X138097738Y-100884541D01*
X138113300Y-100806307D01*
X138113300Y-100750000D01*
X146030840Y-100750000D01*
X146071652Y-100884541D01*
X146164503Y-101058253D01*
X146164507Y-101058260D01*
X146289471Y-101210528D01*
X146441739Y-101335491D01*
X146615465Y-101428349D01*
X146750000Y-101469159D01*
X146750000Y-100750000D01*
X146030840Y-100750000D01*
X138113300Y-100750000D01*
X138113300Y-100249999D01*
X146030839Y-100249999D01*
X146030840Y-100250000D01*
X146755025Y-100250000D01*
X146719930Y-100285095D01*
X146673852Y-100364905D01*
X146650000Y-100453922D01*
X146650000Y-100546078D01*
X146673852Y-100635095D01*
X146719930Y-100714905D01*
X146785095Y-100780070D01*
X146864905Y-100826148D01*
X146953922Y-100850000D01*
X147046078Y-100850000D01*
X147135095Y-100826148D01*
X147214905Y-100780070D01*
X147244975Y-100750000D01*
X147250000Y-100750000D01*
X147250000Y-101469159D01*
X147384534Y-101428349D01*
X147558260Y-101335491D01*
X147710528Y-101210528D01*
X147835492Y-101058260D01*
X147835496Y-101058253D01*
X147928347Y-100884541D01*
X147969160Y-100750000D01*
X147250000Y-100750000D01*
X147244975Y-100750000D01*
X147280070Y-100714905D01*
X147326148Y-100635095D01*
X147350000Y-100546078D01*
X147350000Y-100453922D01*
X147326148Y-100364905D01*
X147280070Y-100285095D01*
X147244975Y-100250000D01*
X147969160Y-100250000D01*
X147969160Y-100249999D01*
X147928347Y-100115458D01*
X147835496Y-99941746D01*
X147835491Y-99941738D01*
X147818546Y-99921091D01*
X147791232Y-99856782D01*
X147798337Y-99809864D01*
X147795136Y-99808994D01*
X147797584Y-99799994D01*
X147797584Y-99799993D01*
X147797585Y-99799991D01*
X147800500Y-99774865D01*
X147800499Y-98685136D01*
X147800497Y-98685117D01*
X147797586Y-98660012D01*
X147797585Y-98660010D01*
X147797585Y-98660009D01*
X147752206Y-98557235D01*
X147672765Y-98477794D01*
X147672763Y-98477793D01*
X147569992Y-98432415D01*
X147544865Y-98429500D01*
X146455143Y-98429500D01*
X146455117Y-98429502D01*
X146430012Y-98432413D01*
X146430008Y-98432415D01*
X146327235Y-98477793D01*
X146247794Y-98557234D01*
X146202415Y-98660006D01*
X146202415Y-98660008D01*
X146199500Y-98685131D01*
X146199500Y-99774856D01*
X146199502Y-99774882D01*
X146202413Y-99799985D01*
X146204863Y-99808987D01*
X146201341Y-99809945D01*
X146208108Y-99861616D01*
X146181457Y-99921086D01*
X146164510Y-99941735D01*
X146164503Y-99941747D01*
X146071652Y-100115458D01*
X146030839Y-100249999D01*
X138113300Y-100249999D01*
X138113300Y-100193692D01*
X138081577Y-100034216D01*
X138081576Y-100034215D01*
X138081576Y-100034211D01*
X138080039Y-100030500D01*
X138019349Y-99883980D01*
X138019347Y-99883976D01*
X137929011Y-99748779D01*
X137929005Y-99748771D01*
X137814028Y-99633794D01*
X137814020Y-99633788D01*
X137678823Y-99543452D01*
X137678819Y-99543450D01*
X137528593Y-99481225D01*
X137528583Y-99481222D01*
X137369107Y-99449500D01*
X137369105Y-99449500D01*
X137206495Y-99449500D01*
X137206493Y-99449500D01*
X137047016Y-99481222D01*
X137047006Y-99481225D01*
X136896780Y-99543450D01*
X136896776Y-99543452D01*
X136761579Y-99633788D01*
X136761571Y-99633794D01*
X136740481Y-99654885D01*
X136679158Y-99688370D01*
X136609466Y-99683386D01*
X136565119Y-99654885D01*
X136544028Y-99633794D01*
X136544020Y-99633788D01*
X136408823Y-99543452D01*
X136408819Y-99543450D01*
X136258593Y-99481225D01*
X136258583Y-99481222D01*
X136099107Y-99449500D01*
X136099105Y-99449500D01*
X135936495Y-99449500D01*
X135936492Y-99449500D01*
X135783284Y-99479975D01*
X135713693Y-99473748D01*
X135659826Y-99432669D01*
X135629987Y-99392810D01*
X135629986Y-99392809D01*
X135514888Y-99306647D01*
X135514886Y-99306645D01*
X135380179Y-99256403D01*
X135380172Y-99256401D01*
X135320644Y-99250000D01*
X134997800Y-99250000D01*
X134997800Y-100219670D01*
X134978055Y-100199925D01*
X134892545Y-100150556D01*
X134797170Y-100125000D01*
X134698430Y-100125000D01*
X134603055Y-100150556D01*
X134517545Y-100199925D01*
X134497800Y-100219670D01*
X134497800Y-99250000D01*
X134174955Y-99250000D01*
X134115427Y-99256401D01*
X134115420Y-99256403D01*
X133980713Y-99306645D01*
X133980706Y-99306649D01*
X133865612Y-99392809D01*
X133865609Y-99392812D01*
X133779449Y-99507906D01*
X133779445Y-99507913D01*
X133729203Y-99642620D01*
X133729201Y-99642627D01*
X133722800Y-99702155D01*
X133722800Y-100250000D01*
X134467470Y-100250000D01*
X134447725Y-100269745D01*
X134398356Y-100355255D01*
X134372800Y-100450630D01*
X134372800Y-100549370D01*
X134398356Y-100644745D01*
X134447725Y-100730255D01*
X134467470Y-100750000D01*
X133722800Y-100750000D01*
X133722800Y-101297844D01*
X126500500Y-101297844D01*
X126500500Y-94458800D01*
X127774840Y-94458800D01*
X127815652Y-94593341D01*
X127908503Y-94767053D01*
X127908507Y-94767060D01*
X128033471Y-94919328D01*
X128185739Y-95044291D01*
X128359465Y-95137149D01*
X128494000Y-95177959D01*
X128494000Y-94458800D01*
X127774840Y-94458800D01*
X126500500Y-94458800D01*
X126500500Y-93958799D01*
X127774839Y-93958799D01*
X127774840Y-93958800D01*
X128499025Y-93958800D01*
X128463930Y-93993895D01*
X128417852Y-94073705D01*
X128394000Y-94162722D01*
X128394000Y-94254878D01*
X128417852Y-94343895D01*
X128463930Y-94423705D01*
X128529095Y-94488870D01*
X128608905Y-94534948D01*
X128697922Y-94558800D01*
X128790078Y-94558800D01*
X128879095Y-94534948D01*
X128958905Y-94488870D01*
X128988975Y-94458800D01*
X128994000Y-94458800D01*
X128994000Y-95177959D01*
X129128534Y-95137149D01*
X129302260Y-95044291D01*
X129454528Y-94919328D01*
X129579492Y-94767060D01*
X129579496Y-94767053D01*
X129672347Y-94593341D01*
X129713160Y-94458800D01*
X128994000Y-94458800D01*
X128988975Y-94458800D01*
X129024070Y-94423705D01*
X129070148Y-94343895D01*
X129094000Y-94254878D01*
X129094000Y-94162722D01*
X129070148Y-94073705D01*
X129024070Y-93993895D01*
X128988975Y-93958800D01*
X129713160Y-93958800D01*
X129713160Y-93958799D01*
X129672347Y-93824258D01*
X129579496Y-93650546D01*
X129579491Y-93650538D01*
X129562546Y-93629891D01*
X129535232Y-93565582D01*
X129542337Y-93518664D01*
X129539136Y-93517794D01*
X129541584Y-93508794D01*
X129541584Y-93508793D01*
X129541585Y-93508791D01*
X129544500Y-93483665D01*
X129544499Y-92393936D01*
X129544497Y-92393917D01*
X129541586Y-92368812D01*
X129541585Y-92368810D01*
X129541585Y-92368809D01*
X129496206Y-92266035D01*
X129416765Y-92186594D01*
X129416763Y-92186593D01*
X129313992Y-92141215D01*
X129288865Y-92138300D01*
X128199143Y-92138300D01*
X128199117Y-92138302D01*
X128174012Y-92141213D01*
X128174008Y-92141215D01*
X128071235Y-92186593D01*
X127991794Y-92266034D01*
X127946415Y-92368806D01*
X127946415Y-92368808D01*
X127943500Y-92393931D01*
X127943500Y-93483656D01*
X127943502Y-93483682D01*
X127946413Y-93508785D01*
X127948863Y-93517787D01*
X127945341Y-93518745D01*
X127952108Y-93570416D01*
X127925457Y-93629886D01*
X127908510Y-93650535D01*
X127908503Y-93650547D01*
X127815652Y-93824258D01*
X127774839Y-93958799D01*
X126500500Y-93958799D01*
X126500500Y-92004427D01*
X126500816Y-91995581D01*
X126515130Y-91795443D01*
X126515131Y-91795442D01*
X126515130Y-91795436D01*
X126517646Y-91777938D01*
X126559356Y-91586199D01*
X126564333Y-91569248D01*
X126632911Y-91385385D01*
X126640259Y-91369298D01*
X126702815Y-91254734D01*
X126734291Y-91197089D01*
X126743845Y-91182221D01*
X126861448Y-91025123D01*
X126873020Y-91011769D01*
X127011769Y-90873020D01*
X127025123Y-90861448D01*
X127182221Y-90743845D01*
X127197089Y-90734291D01*
X127369298Y-90640258D01*
X127385385Y-90632911D01*
X127569248Y-90564333D01*
X127586199Y-90559356D01*
X127777938Y-90517646D01*
X127795436Y-90515130D01*
X127995582Y-90500816D01*
X128004428Y-90500500D01*
X128065892Y-90500500D01*
X148934108Y-90500500D01*
X148995572Y-90500500D01*
X149004418Y-90500816D01*
G37*
%TD.AperFunction*%
%TD*%
M02*
